/* XPM */
static char * house_xpm[] = {
"32 32 388 2",
"  	c #509B66",
". 	c #79493E",
"+ 	c #71443A",
"@ 	c #6C3E3A",
"# 	c #965840",
"$ 	c #8D513B",
"% 	c #5F3633",
"& 	c #94423C",
"* 	c #783F3A",
"= 	c #95573F",
"- 	c #643331",
"; 	c #67292B",
"> 	c #99453C",
", 	c #9B463D",
"' 	c #96443F",
") 	c #96573F",
"! 	c #633331",
"~ 	c #67292C",
"{ 	c #682B2C",
"] 	c #682A2C",
"^ 	c #853F3C",
"/ 	c #AE5048",
"( 	c #AD4D42",
"_ 	c #A94A40",
": 	c #763E39",
"< 	c #633231",
"[ 	c #6E2B2D",
"} 	c #712D2E",
"| 	c #792F30",
"1 	c #692C2D",
"2 	c #AC4D43",
"3 	c #9B463F",
"4 	c #93443F",
"5 	c #9B4842",
"6 	c #9F4740",
"7 	c #793F3A",
"8 	c #6A2A2C",
"9 	c #772F30",
"0 	c #6F2D2E",
"a 	c #6C2C2D",
"b 	c #702C2E",
"c 	c #9D473E",
"d 	c #8F423C",
"e 	c #984741",
"f 	c #AC4E45",
"g 	c #AA4C42",
"h 	c #9E473F",
"i 	c #97443F",
"j 	c #6B2B2D",
"k 	c #6E2C2D",
"l 	c #732D2E",
"m 	c #692B2C",
"n 	c #88403D",
"o 	c #AB514A",
"p 	c #AA4D43",
"q 	c #9B463E",
"r 	c #8F4441",
"s 	c #AB5049",
"t 	c #AF4F45",
"u 	c #96583F",
"v 	c #6A2C2D",
"w 	c #6A2B2D",
"x 	c #6F2C2D",
"y 	c #782F30",
"z 	c #7A3835",
"A 	c #AF5046",
"B 	c #9F4840",
"C 	c #93443E",
"D 	c #B35147",
"E 	c #954540",
"F 	c #994944",
"G 	c #9D4740",
"H 	c #793F3B",
"I 	c #6E2D2E",
"J 	c #6C2B2D",
"K 	c #732E2F",
"L 	c #6D2C2D",
"M 	c #782F2F",
"N 	c #652A2C",
"O 	c #93433D",
"P 	c #954640",
"Q 	c #A94D45",
"R 	c #AB4D42",
"S 	c #91423C",
"T 	c #964742",
"U 	c #AC514A",
"V 	c #A1483F",
"W 	c #99453F",
"X 	c #742E2F",
"Y 	c #722E2F",
"Z 	c #914541",
"` 	c #B05148",
" .	c #9F473F",
"..	c #8B413C",
"+.	c #A34B43",
"@.	c #AC4E43",
"#.	c #A0483F",
"$.	c #8C413D",
"%.	c #A44C45",
"&.	c #AF5047",
"*.	c #A84940",
"=.	c #752E2F",
"-.	c #762F30",
";.	c #954743",
">.	c #B05045",
",.	c #A34940",
"'.	c #95443D",
").	c #934540",
"!.	c #A24940",
"~.	c #97453F",
"{.	c #964743",
"].	c #9B4640",
"^.	c #692A2C",
"/.	c #6D2C2E",
"(.	c #742D2E",
"_.	c #96443D",
":.	c #A74F49",
"<.	c #AE4E43",
"[.	c #92443E",
"}.	c #A44C44",
"|.	c #B04F43",
"1.	c #A54A40",
"2.	c #9D4640",
"3.	c #975840",
"4.	c #8F523B",
"5.	c #712C2E",
"6.	c #7A3030",
"7.	c #692B2D",
"8.	c #662A2C",
"9.	c #7C3031",
"0.	c #8A423F",
"a.	c #B2534B",
"b.	c #A54A41",
"c.	c #8C413C",
"d.	c #9E4A44",
"e.	c #AF5148",
"f.	c #9F4A44",
"g.	c #AF5149",
"h.	c #8F453F",
"i.	c #653A39",
"j.	c #8C5140",
"k.	c #884E3D",
"l.	c #5F3736",
"m.	c #683032",
"n.	c #722D2F",
"o.	c #702D2E",
"p.	c #682B2D",
"q.	c #6D2B2D",
"r.	c #722D2E",
"s.	c #7A2F30",
"t.	c #672A2B",
"u.	c #934744",
"v.	c #A64A41",
"w.	c #98463F",
"x.	c #904540",
"y.	c #AD4F45",
"z.	c #A84C43",
"A.	c #924540",
"B.	c #76403F",
"C.	c #613737",
"D.	c #553135",
"E.	c #633737",
"F.	c #633837",
"G.	c #553235",
"H.	c #603636",
"I.	c #683435",
"J.	c #692D2F",
"K.	c #411C1E",
"L.	c #A14941",
"M.	c #9B473F",
"N.	c #92443F",
"O.	c #9E4943",
"P.	c #B14F44",
"Q.	c #99453D",
"R.	c #964C49",
"S.	c #6E3C3A",
"T.	c #5D3535",
"U.	c #703F38",
"V.	c #603836",
"W.	c #734138",
"X.	c #6E3E38",
"Y.	c #5B3536",
"Z.	c #754239",
"`.	c #5C3536",
" +	c #653636",
".+	c #783435",
"++	c #6A2B2C",
"@+	c #692A2B",
"#+	c #813E3B",
"$+	c #AD4F46",
"%+	c #A84B41",
"&+	c #8E413C",
"*+	c #994741",
"=+	c #A94E45",
"-+	c #80403C",
";+	c #5D3536",
">+	c #6A3B37",
",+	c #6A3D37",
"'+	c #794539",
")+	c #643B36",
"!+	c #864E3C",
"~+	c #764339",
"{+	c #7C4739",
"]+	c #693C37",
"^+	c #6B3C38",
"/+	c #5C3436",
"(+	c #683334",
"_+	c #7B3132",
":+	c #762F2F",
"<+	c #7B3030",
"[+	c #62292A",
"}+	c #743533",
"|+	c #AC524A",
"1+	c #AB4D43",
"2+	c #8F443E",
"3+	c #6C3B3B",
"4+	c #683A37",
"5+	c #774438",
"6+	c #6E3F37",
"7+	c #7B4639",
"8+	c #663C37",
"9+	c #8F5541",
"0+	c #7D4739",
"a+	c #6F4038",
"b+	c #6B3D37",
"c+	c #673536",
"d+	c #682E30",
"e+	c #431D1E",
"f+	c #A14A42",
"g+	c #A04941",
"h+	c #894542",
"i+	c #653838",
"j+	c #663937",
"k+	c #6B3E37",
"l+	c #724138",
"m+	c #7A4639",
"n+	c #6C3E37",
"o+	c #7A4539",
"p+	c #704138",
"q+	c #764338",
"r+	c #673B37",
"s+	c #693B37",
"t+	c #5F3436",
"u+	c #6D3233",
"v+	c #6A2C2E",
"w+	c #7D3D3C",
"x+	c #A9524D",
"y+	c #7A3F3D",
"z+	c #613836",
"A+	c #784439",
"B+	c #6D3F37",
"C+	c #7C4639",
"D+	c #784539",
"E+	c #613736",
"F+	c #5E3536",
"G+	c #643334",
"H+	c #7A3233",
"I+	c #5C2628",
"J+	c #65393A",
"K+	c #6C3D38",
"L+	c #623936",
"M+	c #653B37",
"N+	c #714138",
"O+	c #683D37",
"P+	c #724238",
"Q+	c #623A37",
"R+	c #8E5441",
"S+	c #5A3535",
"T+	c #693D37",
"U+	c #683C37",
"V+	c #663B37",
"W+	c #603736",
"X+	c #6D3D38",
"Y+	c #623536",
"Z+	c #331B1F",
"`+	c #5A3635",
" @	c #874D3A",
".@	c #643A36",
"+@	c #673C37",
"@@	c #8D5440",
"#@	c #633A36",
"$@	c #884D3B",
"%@	c #4E2F2E",
"&@	c #6D423C",
"*@	c #90533E",
"=@	c #764439",
"-@	c #79483C",
";@	c #73443A",
">@	c #72443A",
",@	c #6F4238",
"'@	c #6E4137",
")@	c #744438",
"!@	c #8E5440",
"~@	c #7E4839",
"{@	c #7F4839",
"]@	c #814737",
"^@	c #804838",
"/@	c #91543E",
"(@	c #55342F",
"_@	c #6F443D",
":@	c #92553F",
"<@	c #633836",
"[@	c #6A3E38",
"}@	c #683F3B",
"|@	c #553336",
"1@	c #613837",
"2@	c #603737",
"3@	c #513134",
"4@	c #6E4741",
"5@	c #585B5C",
"6@	c #556062",
"7@	c #5B4547",
"8@	c #663B36",
"9@	c #764438",
"0@	c #93553F",
"a@	c #573530",
"b@	c #623836",
"c@	c #673C38",
"d@	c #693F3A",
"e@	c #733E39",
"f@	c #723E39",
"g@	c #623837",
"h@	c #623A36",
"i@	c #633A37",
"j@	c #703F37",
"k@	c #615250",
"l@	c #11C2DB",
"m@	c #05CCF1",
"n@	c #31677D",
"o@	c #633633",
"p@	c #734238",
"q@	c #653A36",
"r@	c #683D38",
"s@	c #693E39",
"t@	c #6E3C38",
"u@	c #743F39",
"v@	c #73403A",
"w@	c #693C39",
"x@	c #734137",
"y@	c #5F5251",
"z@	c #07B9E2",
"A@	c #00B6F1",
"B@	c #2E5F7C",
"C@	c #653733",
"D@	c #633936",
"E@	c #703D38",
"F@	c #723D38",
"G@	c #784B41",
"H@	c #6D453E",
"I@	c #613935",
"J@	c #5D4747",
"K@	c #1D7CA2",
"L@	c #1674A4",
"M@	c #3A445B",
"N@	c #643834",
"O@	c #784538",
"P@	c #5B3635",
"Q@	c #673937",
"R@	c #6B3B38",
"S@	c #693B38",
"T@	c #613936",
"U@	c #643A37",
"V@	c #6A3E37",
"W@	c #754338",
"X@	c #6E4139",
"Y@	c #6E4039",
"Z@	c #744338",
"`@	c #663A36",
" #	c #6A413B",
".#	c #8B513E",
"+#	c #5D3634",
"@#	c #5C3633",
"##	c #4A2D2D",
"$#	c #351F23",
"%#	c #372023",
"&#	c #362022",
"*#	c #372125",
"=#	c #553231",
"-#	c #87503F",
";#	c #704037",
">#	c #633934",
",#	c #704035",
"'#	c #6B3E35",
")#	c #603734",
"!#	c #8B513F",
"~#	c #51322D",
"{#	c #3E2524",
"]#	c #3E2624",
"                                                                ",
"                              . +                               ",
"                            @ # $ %                             ",
"                          & * = $ - ;                           ",
"                      > , ' * ) $ ! ~ { ]                       ",
"                    ^ / ( _ : ) $ < [ } | 1                     ",
"                  2 3 4 5 6 7 ) $ - 8 9 0 a b                   ",
"              c d e f g h i * ) $ - ~ j k l 0 { m               ",
"            n o p q r s t _ : u $ < [ b l v w x y v             ",
"        z A B C e D B E F G H ) $ - 8 I w J | K w L M N         ",
"      c O P Q R S T U ( V W * ) $ - ] j b X Y a x X Y 0 }       ",
"      Z `  ...+.@.#.$.%.&.*.: u $ < [ } 9 I j b 9 I w =.-.      ",
"        ;.>.,.'.).>.!.~.{.].H ) $ ! ^./.w k b a w k (./.        ",
"      B _.).:.<.'.[.}.|.1.2.H 3.4.- ^.J 5.6.7.8.l 9.I 7.L       ",
"      0.a.b.c.d.e.,.c.f.g.h.i.j.k.l.m.n.o.p.q.r.o.7.J s.t.      ",
"        u.g.v.w.x.y.z.A.B.C.D.E.F.G.H.I.J.} X a w k l 0 K.      ",
"      L.M.N.O.P.Q.).R.S.T.U.V.W.X.Y.Z.`. +.+/.++(.K w j @+      ",
"      #+$+%+&+*+=+-+;+>+,+'+)+!+~+`.{+]+^+/+(+_+:+a L <+[+      ",
"      }+r |+1+2+3+C.4+5+6+7+8+9+~+`.0+a+W.b+C.c+d+k y Y e+      ",
"      f+g+N.h+i+j+k+l+m+n+o+8+9+~+`.0+p+q+m+r+s+t+u+v+k q.      ",
"      w+x+y+`.z+A+p+q+'+B+{+8+9+~+`.C+p+q+D+B+o+E+F+G+H+I+      ",
"        J+K+L+M+N+,+6+p+O+P+Q+R+~+S+N+T+6+N+U+a+V+W+X+Y+Z+      ",
"        `+ @.@k+6+6+6+6+6+a++@@@~+#@a+a+a+a+a+a+k+.@$@%@        ",
"        &@*@r+=@-@;@>@,@'@)@p+!@~+6+~@{@]@]@^@~@'+r+/@(@        ",
"        _@:@<@[@}@|@1@2@3@#@M+R+~+B+P+4@5@6@7@8@9@8@0@a@        ",
"        _@:@b@c@d@j+e@f@g@h@i@!@~+,+j@k@l@m@n@o@p@q@0@a@        ",
"        _@:@<@r@s@t@u@v@w@h@V+R+~+B+x@y@z@A@B@C@5+8@0@a@        ",
"        _@:@D@+@i@E@F@G@H@I@V+R+~+6+x@J@K@L@M@N@O@8@0@a@        ",
"        _@:@<@M+P@Q@R@S@`.T@U@R+~+V@W@P+X@Y@a+p+Z@`@0@a@        ",
"         #.#+#@###$#%#&#*#=#+#-#;#>#,#,#,#,#,#,#'#)#!#~#        ",
"          {#                                        ]#          ",
"                                                                "};
