/* XPM */
static char * tree_xpm[] = {
"32 32 375 2",
"  	c #509B66",
". 	c #1B4D1A",
"+ 	c #2E6824",
"@ 	c #336D27",
"# 	c #296122",
"$ 	c #184517",
"% 	c #154015",
"& 	c #194516",
"* 	c #2B6423",
"= 	c #306B26",
"- 	c #21561D",
"; 	c #235A1F",
"> 	c #438B32",
", 	c #53A03B",
"' 	c #54A23C",
") 	c #519E3A",
"! 	c #478E34",
"~ 	c #357429",
"{ 	c #2B6624",
"] 	c #448B33",
"^ 	c #4A9236",
"/ 	c #3D7E2D",
"( 	c #153F14",
"_ 	c #082C0D",
": 	c #2A6724",
"< 	c #53A13B",
"[ 	c #4D9838",
"} 	c #468F34",
"| 	c #4C9838",
"1 	c #54A13B",
"2 	c #4A9637",
"3 	c #529F3B",
"4 	c #3A792B",
"5 	c #499034",
"6 	c #3C802E",
"7 	c #1A4B19",
"8 	c #1F521C",
"9 	c #20551D",
"0 	c #22591F",
"a 	c #397C2D",
"b 	c #519D3A",
"c 	c #54A13C",
"d 	c #489235",
"e 	c #21591F",
"f 	c #0C330F",
"g 	c #1D4D1A",
"h 	c #489135",
"i 	c #4A9537",
"j 	c #428932",
"k 	c #4A9436",
"l 	c #286122",
"m 	c #32762A",
"n 	c #529E3A",
"o 	c #489336",
"p 	c #3C822F",
"q 	c #418932",
"r 	c #438B33",
"s 	c #3A7F2E",
"t 	c #469034",
"u 	c #428A32",
"v 	c #123D13",
"w 	c #2C6C26",
"x 	c #39812F",
"y 	c #509C39",
"z 	c #448D33",
"A 	c #33762A",
"B 	c #215D20",
"C 	c #33772B",
"D 	c #2E6925",
"E 	c #1B4B19",
"F 	c #499536",
"G 	c #469135",
"H 	c #4B9737",
"I 	c #468E34",
"J 	c #438A32",
"K 	c #479135",
"L 	c #4E9A39",
"M 	c #4B9537",
"N 	c #1C4B19",
"O 	c #174617",
"P 	c #3A802E",
"Q 	c #3C832F",
"R 	c #2A6A26",
"S 	c #1D571E",
"T 	c #387D2D",
"U 	c #4B9536",
"V 	c #0F3A12",
"W 	c #1B511C",
"X 	c #205C20",
"Y 	c #1D581E",
"Z 	c #408A32",
"` 	c #316F27",
" .	c #0E3711",
"..	c #2D6B26",
"+.	c #499336",
"@.	c #2D6F27",
"#.	c #226021",
"$.	c #459034",
"%.	c #4B9637",
"&.	c #539F3B",
"*.	c #448C33",
"=.	c #194918",
"-.	c #245D20",
";.	c #4F9C39",
">.	c #4D9938",
",.	c #3C8330",
"'.	c #1F5A1F",
").	c #367C2C",
"!.	c #418A32",
"~.	c #32752A",
"{.	c #458C33",
"].	c #4F9B39",
"^.	c #327429",
"/.	c #0B320F",
"(.	c #1A4E1A",
"_.	c #3E8430",
":.	c #529F3A",
"<.	c #33782B",
"[.	c #34762A",
"}.	c #377A2C",
"|.	c #509C3A",
"1.	c #448E34",
"2.	c #36792C",
"3.	c #246022",
"4.	c #387B2D",
"5.	c #3A822F",
"6.	c #092F0E",
"7.	c #174C1A",
"8.	c #296825",
"9.	c #387C2D",
"0.	c #478F34",
"a.	c #286523",
"b.	c #33752A",
"c.	c #3F8831",
"d.	c #509D3A",
"e.	c #499235",
"f.	c #2F7028",
"g.	c #2C6D27",
"h.	c #3D8630",
"i.	c #3B832F",
"j.	c #438C33",
"k.	c #4D9A38",
"l.	c #428C33",
"m.	c #235C1F",
"n.	c #0A3410",
"o.	c #2D6C26",
"p.	c #32772B",
"q.	c #2E7028",
"r.	c #2E7128",
"s.	c #499436",
"t.	c #39812E",
"u.	c #367D2D",
"v.	c #377E2D",
"w.	c #256222",
"x.	c #092E0D",
"y.	c #184C1A",
"z.	c #32742A",
"A.	c #3F8731",
"B.	c #2E6F28",
"C.	c #225E21",
"D.	c #2D6C27",
"E.	c #418B32",
"F.	c #3B8430",
"G.	c #4C9737",
"H.	c #509B39",
"I.	c #3D832F",
"J.	c #35772B",
"K.	c #307429",
"L.	c #347B2C",
"M.	c #32782B",
"N.	c #19521C",
"O.	c #0D3912",
"P.	c #0B310E",
"Q.	c #317229",
"R.	c #246122",
"S.	c #134818",
"T.	c #3F8430",
"U.	c #3C8530",
"V.	c #2F6F28",
"W.	c #3F8631",
"X.	c #479235",
"Y.	c #34772B",
"Z.	c #408731",
"`.	c #38802E",
" +	c #2F7329",
".+	c #1A531C",
"++	c #0E3B13",
"@+	c #174A19",
"#+	c #184F1B",
"$+	c #1E581F",
"%+	c #266222",
"&+	c #2D6E27",
"*+	c #3D8530",
"=+	c #347A2C",
"-+	c #2B6D26",
";+	c #367E2D",
">+	c #428B32",
",+	c #296A26",
"'+	c #0E3912",
")+	c #0C3811",
"!+	c #104015",
"~+	c #36782B",
"{+	c #357C2C",
"]+	c #205D20",
"^+	c #307229",
"/+	c #31762A",
"(+	c #2B6C26",
"_+	c #32792B",
":+	c #256423",
"<+	c #134718",
"[+	c #124115",
"}+	c #134617",
"|+	c #3B812E",
"1+	c #307329",
"2+	c #215E21",
"3+	c #3E8631",
"4+	c #2C6F27",
"5+	c #114316",
"6+	c #18501B",
"7+	c #266624",
"8+	c #1A531D",
"9+	c #0D3A13",
"0+	c #0C3611",
"a+	c #0A310F",
"b+	c #0E3E14",
"c+	c #104115",
"d+	c #164918",
"e+	c #408932",
"f+	c #1C531C",
"g+	c #1C541D",
"h+	c #286925",
"i+	c #34792B",
"j+	c #2E7228",
"k+	c #1C561E",
"l+	c #114115",
"m+	c #0A310E",
"n+	c #0E3C13",
"o+	c #144818",
"p+	c #114517",
"q+	c #104316",
"r+	c #0A320F",
"s+	c #0C3711",
"t+	c #09320F",
"u+	c #082E0D",
"v+	c #0F4115",
"w+	c #236122",
"x+	c #174F1A",
"y+	c #0F4316",
"z+	c #103A13",
"A+	c #0B2C0E",
"B+	c #08290D",
"C+	c #082B0C",
"D+	c #092D0D",
"E+	c #0C3512",
"F+	c #0C3412",
"G+	c #092511",
"H+	c #152511",
"I+	c #1D2611",
"J+	c #1F2713",
"K+	c #262E16",
"L+	c #133212",
"M+	c #103612",
"N+	c #133813",
"O+	c #1A2E13",
"P+	c #1E2713",
"Q+	c #1E2913",
"R+	c #202B14",
"S+	c #282615",
"T+	c #221912",
"U+	c #0D1415",
"V+	c #092011",
"W+	c #0A1C13",
"X+	c #0B1316",
"Y+	c #0B1017",
"Z+	c #251817",
"`+	c #573B29",
" @	c #452E20",
".@	c #432C1F",
"+@	c #493122",
"@@	c #3F2E1E",
"#@	c #493624",
"$@	c #553F29",
"%@	c #452F20",
"&@	c #36241A",
"*@	c #422C1F",
"=@	c #472F21",
"-@	c #38261B",
";@	c #201515",
">@	c #0C0E19",
",@	c #0C0D18",
"'@	c #271814",
")@	c #422C1E",
"!@	c #523827",
"~@	c #644630",
"{@	c #4D3424",
"]@	c #4B3323",
"^@	c #735137",
"/@	c #715036",
"(@	c #593D2A",
"_@	c #483122",
":@	c #62452F",
"<@	c #60422D",
"[@	c #3F2A1E",
"}@	c #4A3323",
"|@	c #473022",
"1@	c #1D1313",
"2@	c #0E0E17",
"3@	c #0B0D18",
"4@	c #241715",
"5@	c #5A3E2A",
"6@	c #735237",
"7@	c #61432E",
"8@	c #412B1E",
"9@	c #704F36",
"0@	c #61442E",
"a@	c #5E412C",
"b@	c #684931",
"c@	c #6F4E35",
"d@	c #6E4D34",
"e@	c #422D1F",
"f@	c #3B281C",
"g@	c #63452F",
"h@	c #4E3524",
"i@	c #1A1112",
"j@	c #0B0C17",
"k@	c #301E17",
"l@	c #704F35",
"m@	c #6F4F35",
"n@	c #342017",
"o@	c #765438",
"p@	c #6D4D34",
"q@	c #573D29",
"r@	c #6A4A32",
"s@	c #6C4C33",
"t@	c #654630",
"u@	c #332017",
"v@	c #402A1E",
"w@	c #513727",
"x@	c #1B1113",
"y@	c #1F1616",
"z@	c #3E2C23",
"A@	c #3C2B23",
"B@	c #271914",
"C@	c #513625",
"D@	c #765439",
"E@	c #674831",
"F@	c #402B1E",
"G@	c #281811",
"H@	c #6D4C34",
"I@	c #775439",
"J@	c #664730",
"K@	c #36231A",
"L@	c #181317",
"M@	c #0E0E18",
"N@	c #170F12",
"O@	c #4E3525",
"P@	c #61442F",
"Q@	c #523927",
"R@	c #432E20",
"S@	c #261915",
"T@	c #1A1011",
"U@	c #301F18",
"V@	c #60432F",
"W@	c #5E422D",
"X@	c #37241A",
"Y@	c #100D14",
"Z@	c #16131A",
"`@	c #18151B",
" #	c #19161B",
".#	c #17141A",
"+#	c #0E0F19",
"@#	c #141219",
"##	c #0D0E18",
"$#	c #0B0E19",
"%#	c #0B0D19",
"                          . + @ # $     % &                     ",
"                  * = - ; > , ' ) ! ~ { ] ^ / (                 ",
"              _ : ) < [ } | , , , 1 , 2 1 1 3 4 5 6 7           ",
"          8 9 0 a | , < , b , , , , , , , , , ' c d e f         ",
"        g h | i 1 ) , , , , , , 1 1 1 1 ) 3 , , 3 j k l         ",
"      7 m | 1 < , , , , , , n o p q r s t ) , , , 1 1 u 7       ",
"    v w x | c 1 , , , , , , , y z A B C | < , , , , , , D       ",
"    E F G H I J 1 , , , , , , , 1 , K L , , , , , , , 1 M N     ",
"    O P Q R S T < , , , , , , , , , 1 , , , , , , , , 1 U N     ",
"    V W X Y Q Z H , , , , , , , , , , , , , , , , , , , `       ",
"   ...+.@.#.$.) %.&., 1 , , , , , , , , , , , , , , 3 1 *.=.    ",
"  -.;.>.,.'.).1 , , b K n ' , , , 1 , , , , , , , !.~.{.].^./.  ",
"  (.u ) 1 q w _., :.K <.[.}.%.1 |.1.[ , , , , , , 2.3.4.5.-.    ",
"  6.7.8.9.K 0.a.b.c.i d.e.f.g.!.h.i.>., , , , , , |.j.k.l.m.    ",
"    n.o.j p.c.q.r.s.b , 1 , q t.H ) , , , , , 3 :., !.u.v.w./.  ",
"  x.y.z.A.B.C.D.B.j.!.3 , n E.F.G.n 3 n H.1 ) d.I.J.K.L.M.N.O.  ",
"  P.Q.+.R.S.T.:.M U.K %.[ ].>.H K L _.V.W.L X.X.Y.Z.H `. +.+++  ",
"    @+w.#+$+%+&+A.*+=+u.5.$.].1 , < M -+;+1.b i M.`.>+u.,+R '+  ",
"      )+!+~+q A t.{+]+^+>.j.2.b < 3 :.l./+(+P z.r._+:+X <+[+    ",
"        6.}+w k |+s.W.1+l.u.2+j.;.E.c.3+4+<+5+6+K.7+8+9+0+      ",
"        a+b+c+d+g.e+,.f+g+Y h+;+i+h+j+k+#.l+m+n+o+p+q+r+        ",
"            x.s+<+S.p+t+u+v+Y w+x+b+S.y+z+A+B+C+D+E+F+          ",
"                G+H+I+J+K+L+M+N+O+P+Q+R+S+T+U+V+W+X+Y+          ",
"                Z+`+ @.@+@@@#@$@%@&@*@=@-@+@;@    >@>@>@        ",
"            >@,@'@)@!@~@{@]@^@/@(@_@:@<@[@}@|@1@2@>@>@>@        ",
"          >@>@3@4@5@6@7@8@8@9@0@a@b@c@d@e@f@g@h@i@  >@>@>@      ",
"          >@>@j@k@l@m@!@n@g@o@p@q@_@r@s@t@u@v@w@x@  >@>@>@      ",
"            >@,@y@z@A@B@C@D@E@5@F@G@+@H@I@J@K@L@M@>@>@>@        ",
"            >@>@      N@O@P@Q@R@S@T@U@!@V@W@X@Y@  >@>@          ",
"              >@>@>@>@M@Z@`@ #.#+#  2@.#`@`@@###>@>@            ",
"                >@>@>@>@$#%#%#$#>@>@>@%#%#%#$#>@                ",
"                        >@>@>@>@>@>@      >@>@                  "};
